<?xml version="1.0"?>
<svg xmlns="http://www.w3.org/2000/svg" xmlns:xlink="http://www.w3.org/1999/xlink" xmlns:svgjs="http://svgjs.com/svgjs" version="1.1" width="512" height="512" x="0" y="0" viewBox="0 0 512 512" style="enable-background:new 0 0 512 512" xml:space="preserve" class=""><g><path xmlns="http://www.w3.org/2000/svg" d="m437.019531 74.980469c-48.351562-48.351563-112.640625-74.980469-181.019531-74.980469-68.382812 0-132.667969 26.628906-181.019531 74.980469-48.351563 48.351562-74.980469 112.640625-74.980469 181.019531s26.628906 132.667969 74.980469 181.019531c48.351562 48.351563 112.640625 74.980469 181.019531 74.980469 42.421875 0 84.449219-10.59375 121.539062-30.636719 7.484376-4.046875 10.269532-13.390625 6.226563-20.871093-4.042969-7.484376-13.386719-10.273438-20.871094-6.230469-32.605469 17.621093-69.570312 26.933593-106.894531 26.933593-124.175781.003907-225.199219-101.019531-225.199219-225.195312s101.023438-225.199219 225.199219-225.199219 225.195312 101.023438 225.195312 225.199219c0 29.386719-7.136718 64.355469-13.542968 77.359375-5.683594 11.527344-21.78125 27.765625-39.78125 27.765625-23.300782 0-42.253906-18.953125-42.253906-42.253906v-162.386719c0-8.503906-6.894532-15.402344-15.402344-15.402344-8.503906 0-15.398438 6.898438-15.398438 15.402344v15.734375c-23.796875-28.019531-59.261718-45.835938-98.816406-45.835938-71.472656 0-129.617188 58.144532-129.617188 129.617188 0 71.46875 58.144532 129.617188 129.617188 129.617188 40.839844 0 77.320312-18.992188 101.097656-48.601563 8.085938 31.535156 36.75 54.910156 70.773438 54.910156 29.710937 0 56.402344-22.613281 67.410156-44.953125 9.375-19.023437 16.71875-58.984375 16.71875-90.972656 0-68.378906-26.628906-132.667969-74.980469-181.019531zm-181.019531 279.835937c-54.488281 0-98.816406-44.328125-98.816406-98.816406s44.328125-98.816406 98.816406-98.816406 98.816406 44.328125 98.816406 98.816406-44.328125 98.816406-98.816406 98.816406zm0 0" fill="#ffffff" data-original="#0074f0" style="" class=""/></g></svg>
